/* XPM */
static char *_250_f8f2bf9d9258bb709276eb4ed6bd4afb9cdf98511adf627365c36e58a394c024[] = {
/* columns rows colors chars-per-pixel */
"64 64 238 2 ",
"   c #1D1C1C",
".  c #181618",
"X  c #201E1E",
"o  c #201E20",
"O  c #242425",
"+  c #282727",
"@  c #292728",
"#  c #262828",
"$  c #2B2C2B",
"%  c #272827",
"&  c #342D2A",
"*  c #342B28",
"=  c #2E302E",
"-  c #33322D",
";  c #3C332C",
":  c #3F392A",
">  c #2F3130",
",  c #333433",
"<  c #3B3634",
"1  c #373936",
"2  c #3A3A35",
"3  c #3D3D3C",
"4  c #373A39",
"5  c #302F30",
"6  c #1E1E20",
"7  c #423C2E",
"8  c #43352E",
"9  c #433C35",
"0  c #433E3C",
"q  c #4A3D36",
"w  c #3F413E",
"e  c #3E4137",
"r  c #43423D",
"t  c #4B433C",
"y  c #444235",
"u  c #51453D",
"i  c #594739",
"p  c #58483A",
"a  c #58452C",
"s  c #69573A",
"d  c #7A5C38",
"f  c #654D33",
"g  c #6B623D",
"h  c #3E3F41",
"j  c #3E4141",
"k  c #454543",
"l  c #4A4644",
"z  c #4A4A46",
"x  c #4C4C4A",
"c  c #474845",
"v  c #534B44",
"b  c #514D4B",
"n  c #5B4E43",
"m  c #53514C",
"M  c #5C534B",
"N  c #5B5648",
"B  c #545452",
"V  c #595554",
"C  c #5A5955",
"Z  c #5B5B59",
"A  c #565852",
"S  c #4E504B",
"D  c #645344",
"F  c #62594E",
"G  c #6B5B4B",
"H  c #6A5943",
"J  c #755B46",
"K  c #645B52",
"L  c #625E5C",
"P  c #695F55",
"I  c #676447",
"U  c #7C634C",
"Y  c #716A44",
"T  c #63605E",
"R  c #6C655C",
"E  c #6B6658",
"W  c #746A5C",
"Q  c #7A6E5C",
"!  c #766553",
"~  c #7C705F",
"^  c #797957",
"/  c #78754E",
"(  c #646261",
")  c #696663",
"_  c #6C6A65",
"`  c #6E6C69",
"'  c #716C67",
"]  c #72716E",
"[  c #7C7665",
"{  c #7C7A75",
"}  c #797673",
"|  c #845D3B",
" . c #896339",
".. c #8B753B",
"X. c #9A6A34",
"o. c #A76D33",
"O. c #AA7235",
"+. c #B5783A",
"@. c #AA6C28",
"#. c #C77D2A",
"$. c #8C6643",
"%. c #936B48",
"&. c #99714C",
"*. c #826C55",
"=. c #89755D",
"-. c #87755B",
";. c #9C7852",
":. c #897E44",
">. c #A07F59",
",. c #A07D56",
"<. c #B87F43",
"1. c #8D7D64",
"2. c #907F66",
"3. c #7F8079",
"4. c #B2823D",
"5. c #CD812C",
"6. c #D6882D",
"7. c #CA8934",
"8. c #D38B34",
"9. c #D48F39",
"0. c #D7953A",
"q. c #D69334",
"w. c #E59A37",
"e. c #E6982F",
"r. c #EBA538",
"t. c #F2AD3C",
"y. c #F4AA34",
"u. c #F6B23D",
"i. c #FBB93C",
"p. c #D7A53F",
"a. c #FFC23E",
"s. c #8A8756",
"d. c #92884D",
"f. c #BB8648",
"g. c #A3845D",
"h. c #BC8E51",
"j. c #BE9253",
"k. c #A5934D",
"l. c #878769",
"z. c #918068",
"x. c #848579",
"c. c #9B9B75",
"v. c #A68B64",
"b. c #A98D66",
"n. c #A09F68",
"m. c #A8A774",
"M. c #A7A05E",
"N. c #C18B47",
"B. c #D89D42",
"V. c #C59B55",
"C. c #C3914C",
"Z. c #D9A246",
"A. c #DAA549",
"S. c #DCAB4C",
"D. c #D4AA45",
"F. c #D4B955",
"G. c #D8AF4D",
"H. c #E4AA48",
"J. c #E7B54A",
"K. c #F3B543",
"L. c #F6BA44",
"P. c #F3BD4B",
"I. c #FCBD42",
"U. c #E5B350",
"Y. c #CFBC60",
"T. c #D9C35D",
"R. c #FEC543",
"E. c #FECB46",
"W. c #F5C34D",
"Q. c #FECC4C",
"!. c #FAC44B",
"~. c #FFD34D",
"^. c #F1C451",
"/. c #F6CB53",
"(. c #F9CC54",
"). c #F7CD57",
"_. c #FED552",
"`. c #FFDB54",
"'. c #FBD35B",
"]. c #FFDD5A",
"[. c #F3D55C",
"{. c #EACA53",
"}. c #FFE25D",
"|. c #FFE056",
" X c #D4CA6E",
".X c #E6DD78",
"XX c #EFDA67",
"oX c #FFE563",
"OX c #FFE966",
"+X c #FFE769",
"@X c #FFEB6C",
"#X c #FFF06F",
"$X c #FFEE72",
"%X c #F4E575",
"&X c #FFF174",
"*X c #FFF37B",
"=X c #FFF87F",
"-X c #ECE37B",
";X c #8C8D84",
":X c #9D9E86",
">X c #A8A88E",
",X c #AFAFA1",
"<X c #CCCC8D",
"1X c #E5E288",
"2X c #FFF682",
"3X c #FFF984",
"4X c #FFFA8B",
"5X c #FEF78A",
"6X c #E5E498",
"7X c #FFFC93",
"8X c #FFFD9B",
"9X c #F4F198",
"0X c #F2EC87",
"qX c #C3C3AA",
"wX c #D5D5AB",
"eX c #CECEB9",
"rX c #E6E7A8",
"tX c #FFFEA3",
"yX c #FFFFAC",
"uX c #F3F2A4",
"iX c #FFFFB4",
"pX c #FFFFBC",
"aX c #F3F3B8",
"sX c #E7E7BC",
"dX c #DFE0A5",
"fX c #D2D2C6",
"gX c #E6E6C8",
"hX c #FFFFC4",
"jX c #FFFFCC",
"kX c #F3F3C5",
"lX c #E4E4D4",
"zX c #E8E8D8",
"xX c #FFFFD4",
"cX c #FFFFDC",
"vX c #F7F7D7",
"bX c #FEFEE4",
"nX c #FEFEEB",
"mX c #F7F7E0",
/* pixels */
"1 1 , , 5 , , , , 5 $ @ # @ @ # @ # @ # # $ $ # > # > # $ $ > $ # $ $ $ $ $ > $ $ $ = $ $ > $ $ $ # $ # 5 5 5 , , < 5 5 , < , o ",
"$ @ @ + @ @ @ @ + O O O = 5 > , > 5 , , > , , , , 4 4 4 , , , 4 , , 4 > > 4 4 4 , 4 , 4 > 4 > 4 4 > 4 4 5 O O O # @ @ + @ $ @ o ",
"& @ o o @ @ O   6 o $ < 3 3 k j k k k k k k k c c c x x x x x x x x x x x x c x c c c c c c c c k j j j < + O   o @ # + o o @ o ",
"$ @ o + @ @ +   o $ 0 k r k k k k c x x x B B Z Z Z B Z Z Z Z V Z Z Z Z Z Z B B B B b x x c c k k k k k k < O X o @ @ @ + o $ o ",
"$ $ @ @ @ @ + @ $ 0 0 4 3 h 3 k k k x b b B B B B B Z Z B Z Z Z Z Z Z Z B Z B B B B m x x c k k w 3 3 3 0 k < + @ @ @ @ @ @ $ o ",
"& @ * @ @ @ + @ r k 3 0 0 0 h k l b b B B B V V Z Z Z T T T T T T T T T Z Z Z Z V C B B B b c l k r 0 0 3 3 k , @ @ + @ @ $ @ X ",
"5 @ $ @ @ + O O & < * * * * ; < q 9 0 0 0 t l v x b b n m b M n m m m v v v x z l q t t 0 9 9 < ; & * * * * 2 , + @ @ @ @ @ @ X ",
"$ @ @ @ @ $ +   @ 2 v i i i D D D H G G P ! ! W ' W Q Q [ Q [ [ Q [ ~ ~ ~ Q W Q W ! P G G D D D D i i u u u 2 5 @ O @ @ @ + + X ",
"$ O X O $ 9 9 $ $ 4 y J  .$.$.%.%.&.;.;.;.>.>.v.>.b.b.b.b.b.b.b.b.b.b.b.b.v.g.g.g.>.,.,.;.&.&.%.$. .$. .s 0 , , $ r 1 + O   O X ",
"$ O O $ 0 4 & q & , , p O.5.#.5.5.8.8.9.B.B.B.B.B.A.B.A.S.S.S.S.H.S.S.S.S.A.A.A.B.B.0.0.0.q.8.6.6.5.+.o.i 1 , & 0 m z , O O +   ",
"$ + @ 0 h , ; n f ; = 1 p 7.r.t.t.u.K.P.K.P.P.W.).).^.).'.'.'.'.'.).'.).(.(.(.W.!.!.I.P.i.u.u.u.y.y.7.s < , , t t b k k 1 + O X ",
"X X $ k 0 < 8 f X. .8 - 4 s D.I.R.R.Q.Q.(._.].].'.oXoXoX+X+XoX+X+X+X+XoXoX}.].].`._._._.~.E.a.a.i.p.s < 1 - f s t b k 3 t +   . ",
"O # , c 3 , 8 f @.5...e , 1 s D.^.~.~.`.`.'.}.oX+XoX+X$X$X@X$X+X$X@X@X@X@X+X+XoXoX].].`._.~.E.E.D.g 2 1 ; d o.H q m k 3 k , % O ",
"O 5 2 c h < 8 s o.6.r.4.y = 1 s G._.`.].}.oX+X+X$X$X$X$X$X*X*X*X*X*X*X$X$X$X@X+X+XoX}.].|._._.F.g 2 , 1  .8.O.s v B k 3 k 3 = + ",
"O , 3 z 0 2 q J o.6.y.i.4.7 > 1 I F.'.oX+X+X$X$X$X*X*X2X=X=X2X2X*X2X*X=X*X*X&X$X@X@XoX}.|.].F.g 1 1 ; ..K.e.+.J u V c h z 3 - % ",
"O $ 3 z k 9 q g O.6.t.a.W.k.e > 1 H Y.+X@X$X$X$X2X*X2X5X5X5X5X5X5X5X5X5X2X2X=X*X*X$X@X@XoXT.Y 2 > 1 ..P.i.e.+.J v K c k z 3 = % ",
"@ > 3 x k 0 t J O.e.u.R.Q.^.d.2 , 1 I  X%X$X2X2X5X5X4X4X7X7X7X7X7X7X7X7X5X5X3X2X=X&X#XOX XY 1 - 1 d.W.a.R.r.+.J M L x k x 3 5 @ ",
"O > 3 x c c p J +.0.K.R.~._.).k.: , 1 I  X2X5X5X5X7X8X8XtX8XtX8XtX8X8X8X7X7X7X4X3X=X=X.X/ 1 > - d.{.~.E.R.r.7.U M ( x c x 3 5 @ ",
"# > 4 x x l v U <.w.I.Q._.`.].XXM.y > 4 I  X5X7X8XtXtXtXtXyXyXyXyXyXtXtXtX8X7X7X4X5X.Xg , = 2 d.{.|.`.~.R.t.7.U M ) B l c h 5 @ ",
"# , 3 m b l u *.f.w.I._._.].oX+X%Xk.e , 4 F <X9XtXtXyXyXiXiXiXiXiXiXiXyXyXtXtX8X7X1X3.1 = e s.XXOX|.`.~.Q.K.f.*.F ) B l x h > $ ",
"# > 3 B B l v *.<.r.P.'.'.].+X+X&X-Xs.2 > 1 I <XiXiXiXpXpXpXpXhXpXpXpXpXiXiXyXtX6X3.: $ 4 s.%X@XOX}.|.`.Q.t.N.*.K ) Z x S 3 5 # ",
"# > 3 V B v n *.<.H.!.`.}.oX+X$X*X3X0Xn.w > 1 T <XiXhXhXhXhXjXhXhXhXhXhXpXiXiX6X3.: $ e s.-X*X&X#XOX|.|.~.J.C.-.K _ Z x m h > # ",
"# > 3 B V x n =.f.H.!.`.}.+X+X*X*X5X4X9Xc.w > 4 E wXjXjXxXxXxXxXxXxXjXjXhXhXrX3.e - e s.0X3X=X&X#XOX}.|._.J.C.-.P ` Z B B 3 > @ ",
"# > 3 Z B b n =.N.H.(.'.oX$X$X*X2X4X7XtX9Xm.r > 4 T wXxXxXxXxXcXxXxXxXxXhXrX3.e = e l.6X7X4X3X*X#X@XOX}._.P.C.-.R ] Z B B h 5 @ ",
"# $ w C B b F -.f.H.(.}.+X$X$X2X5X7X8XtXyXaX>Xr , 2 _ wXcXcXbXbXcXcXcXxXgX:Xr , y l.uXtX7X7X3X=X&X#XOX}._.P.V.-.R ] Z B B h 5 @ ",
"# 5 3 C C m F 1.h.H.(.oX+X$X*X2X5X7XtXyXiXpXaX:X3 $ , ` fXmXbXbXnXbXbXgXx.2 $ 3 x.rXiXtX8X7X4X3X*X&X@XoX`.P.V.1.R ] L B Z h > # ",
"# > w Z C B F 1.C.U.'.oX+X$X*X5X5X8XtXyXiXhXjXkX>XB , 4 ) fXnXnXnXnXlXx.3 , 1 :XsXpXiXyXtX7X4X3X=X&X@XOX].^.V.1.R } T V C j > # ",
"# > 3 Z C V F 1.j.H.'.oX$X$X*X5X7X8XyXiXpXhXxXxXvX:X1 5 4 ) fXnXnXlXx.4 - 4 x.sXhXhXiXyXtX8X7X4X=X&X@XoX].^.V.1.R { T V Z j , # ",
"# $ e Z Z V F 1.j.U.'.+X$X*X2X5X7XtXyXiXhXjXxXcXbXlX{ > > 4 _ fXlXx.4 , 1 ;XkXxXjXhXpXiXyX8X7X4X3X*X#XOX].^.V.z._ { ( C Z w = # ",
"# > w Z Z C F 1.C.U.'.+X$X*X5X5X7XtXyXiXhXjXxXcXbXbXzX{ > > , Z ` 4 , 4 ;XzXcXcXxXhXpXiXyX8X7X4X3X&X&XOXoX^.V.z.W } ( V Z w = % ",
"# > 3 Z Z C K 2.j.U.'.+X+X*X2X5X8XtXiXpXhXjXxXcXbXnXnXzX{ > > , , > 4 ;XzXbXcXcXjXjXpXiXtXtX7X4X3X=X&XOX].^.V.2._ { ( Z Z 3 $ # ",
"o = 3 Z Z C K 2.j.U.'.$X$X*X2X5X8XtXiXpXhXjXcXcXbXnXnXnXzX{ > 5 = 4 ;XzXnXbXcXcXxXhXhXiXyXtX7X4X=X*X#X@XoX^.V.2.' { ( Z Z w > # ",
"% $ 3 Z Z C K 2.j.U.'.+X$X*X2X4X8XtXyXpXhXjXxXcXnXnXnXmXfX} , # # , ] fXmXnXbXcXxXhXhXiXyXtX7X4X3X&X&XOX}.^.V.z.` { ( V Z j 5 # ",
"% > 3 Z Z C K 1.j.U.'.+X$X*X2X5X8XtXiXiXhXxXxXcXnXnXmXfXZ , = # # > , Z qXmXcXcXxXhXpXiXyX8X7X4X3X=X&XOX}.^.V.2.' { ( V Z h 5 # ",
"% $ 3 Z Z C F 1.j.U.'.+X+X*X2X5X7XtXyXpXhXjXxXcXmXmXqXB 4 = , _ ( > > > Z qXvXcXjXhXpXiXtXtX7X4X=X=X#XOX}.^.V.z._ { ( Z Z w > # ",
"O - 0 Z Z C F 1.j.H.'.+X+X*X2X2X7X8XyXiXpXhXxXxXvX,Xx 5 > > 3.lXlX{ = $ > B qXjXjXhXiXiXtX8X7X4X=X*X#XOX].^.V.1.W } T V C h = # ",
"% > 3 Z Z V F =.h.S.'.+X@X$X2X5X7X8XtXiXpXhXjXjXqXc > $ , x.lXnXnXlX} = = , A qXjXhXiXyXtX7X4X3X=X&X#XOX|.{.V.2.) } T Z C w > # ",
"# = 3 Z C B F 1.h.H.(.oX+X$X*X5X5X8XtXyXiXpXaX,X) , 5 1 { lXnXnXnXbXgX] $ $ , E wXpXiXtXtX9X4X3X=X#X#XOX`.W.V.s.W } Z B C w = # ",
"# = w C C b M 1.h.H.(.oX+X$X*X*X5X7X8XyXiXaX>Xr , - 1 x.gXbXbXbXbXbXcXgX} > , 1 E <XyXtX8X7X3X=X*X#XOX}._.P.j.-.R ] ( B V w $ # ",
"O = 4 C C b M =.f.H.(.].+X+X$X*X2X5X7XtXyXm.r > $ - { gXcXcXcXcXcXxXxXxXsXl.z = > S <X9X7X4X=X=X&X#X}.}._.^.j.-.E ] Z B B 3 > # ",
"O @ 2 C V b M -.f.H.!.`.oX+X$X*X2X5X7X9Xm.r = = , [ wXjXxXxXxXxXxXxXxXjXjXaXc.> = > N <X9X3X3X=X#XOXOX|._.P.C.=.E ` Z B B 3 5 # ",
"O $ 3 A V x n *.f.H.Q.`.].+X$X$X*X2X0Xm.y , = - [ rXjXjXjXjXjXjXjXjXjXhXpXpXwX^ = = = N  X3X=X&X#XOX}.|._.K.N.-.K ` Z B x h $ O ",
"O $ 4 B B b v *.f.B.!._.].oX+X$X*X%Xn.y > = = ^ rXiXpXpXhXhXhXhXhXhXpXpXpXiXiX6X^ = # = I  X&X#XOX}.}.`.~.K.N.*.K _ Z b x 3 $ + ",
"O $ 3 m m v u *.<.r.!._.`.}.oX+X%XM.y , = , ^ 6XtXyXyXiXiXpXpXpXpXpXiXiXyXyXtX8X1X/ = = = I  X#XOX}.|._.Q.t.N.*.F _ Z c x 3 # O ",
"O $ 4 m x l l *.<.w.!.~._.].|.}.M.e > = = 3..X7X8XtXtXyXyXyXyXiXyXyXyXtXtXtX8X7X4X1X3.* % : g T.}.|.`.~.E.t.N.*.F ) B c x 3 $ O ",
"O - 4 x x k u U +.w.I.Q.~.`.[.k.e > > = / -X3X3X7X8X8XtXtXtXtXtXtXtXtXtX8X8X7X4X3X3X.Xs.- % % g T.|.`.~.R.t.+.*.M ) x c x 3 $ # ",
"# @ 4 b l 0 u J +.w.i.E.~.{.k.y = = = g  X*X3X3X5X4X7X7X8X8X8X8X8X8X7X7X4X4X4X3X3X=X*X.Xd.= # e g F.~.a.I.r.<.U M T x c z 3 $ # ",
"# $ 2 x k 0 u J O.e.i.a.W.k.y = = $ g  X&X&X*X=X=X3X4X5X4X4X4X4X4X4X4X4X4X3X3X=X*X#X#X@XXX:.- % $ g F.E.i.e.+.U n Z x k z 3 $ # ",
"O $ 4 x l 4 q J O.e.u.K.k.: = = = g T.oXOX@X$X&X*X=X=X2X3X3X3X3X4X3X3X=X=X*X=X&X#X#XOXOXOX{...- # = g D.u.q.O.U u V c k c 2 5 O ",
"O @ 2 z h < 8 J o.6.r.4.: $ = $ g F.`.}.oX+X@X@X@X&X&X*X*X*X*X*X&X*X*X*X&X&X#X@XOXOXOX|.|.|.{...- $ - s 0.6.@.J u V l h l 3 5 O ",
"O $ 2 c 0 < 8 H o.#.o.: = - $ g G._.`.].].}.oX@X@X@X@X@X&X&X&X&X&X&X#X#X#X@X@XOXOX}.|.|.|.`.~.{.d - $ - s +.o.s u M c h c 4 $ @ ",
"O $ 1 k 0 , 8 f o.| : $ = % s D.E.~.~._._.|.|.}.}.oXOX@XOX@X@X@X@X@X@XOXOXOX}.}.|.|.`.`.~.~.E.E.a...- $ - f  .s t b k 3 k 2 # # ",
", 5 , l r < 8 s f ; = $ = s p.a.R.R.E.Q._._._.`.].].}.}.}.oXoXoX}.}.}.}.].}.].].`.`.~.~.E.E.a.a.a.p. .* % - a D t b k r x 2 , @ ",
"$ @ + , k < 8 t ; $ = $ f q.r.y.t.u.u.L.L.P.W.W.W././././.(./.).`.).).)././.W.W.W.W.a.i.K.K.y.y.y.y.q.d * = = e l b k z r $ + O ",
"$ O o O , r < $ $ = $ a O.#.5.5.5.8.8.9.0.0.B.B.Z.Z.Z.A.A.A.S.A.S.D.D.A.D.Z.Z.Z.B.0.9.9.8.6.5.5.5.#.#.@.a * % - 2 m b 3 + O O O ",
"$ @ O O + $ + & = @ 9 d |  . ...%.&.&.;.;.,.>.>.g.g.g.v.v.v.v.b.v.b.v.v.g.g.g.;.g.g.;.:.&.&.&.%... .d d d y % - = 0 0 @ O   O O ",
"$ @ @ @ @ % @ $ % < u p p i D D H G G G ! ! W ! Q Q ~ Q Q Q [ Q [ Q Q Q Q Q Q W ! ! E G G G H D D f i i u u 2 @ > , $ @ @ @ + O ",
"$ + * $ @ % # @ , z t t l v l v m A C C Z K L P R ) _ _ ' _ ' ' ' ' _ ' ' R ) P T Z K K C C M b v l l l t 0 z 0 , $ + @ @ @ + O ",
"& @ $ + @ % @ @ - m m m m V V C Z L Z ( ) ) _ ` _ ` ` ] ] ] ] ] ] ] ] ` ` ` ` ` _ _ ) ( R Z Z C C B B m m m B h $ @ O $ @ * + O ",
"$ $ @ @ @ % @ @ + - 2 , , , 5 , > 1 1 4 , 4 4 < 4 < < 2 2 < 4 4 1 < 1 1 < 1 < < 1 1 4 4 1 , 1 , , , , - , 4 3 @ @ @ @ @ @ @ $ o ",
"& @   O @ @ O . o O # 6 + + O @ O # # # # # # # @ $ # $ # @ @ # # $ # # @ # O @ # $ $ # # # $ # O @ # O $ 5 @ o   + + @ + O + O ",
"5 @ o O @ % O O o O o O 5 1 , 1 4 j j 4 j j j 4 3 3 j h h 4 h 3 j j 3 3 3 3 3 h j j j j j h j 4 < 1 , > > # + o X O @ + o X + X ",
"$ + @ + % % # @ O O O   # $ $ $ > > > > > > > > > > > > = = = = > 4 $ > 5 = 5 > > > , > > > $ $ > $ = # = @ O O + @ @ + + + + o ",
"o       . .     . . . . O O O # O O O O # # # O # # # # O O O # O O O O O o # @ # # # # # # # # # # # @ @ o . o o o X   X O X   "
};
